<svg version="1.1"
	 xmlns="http://www.w3.org/2000/svg" xmlns:xlink="http://www.w3.org/1999/xlink" xmlns:a="http://ns.adobe.com/AdobeSVGViewerExtensions/3.0/"
	 x="0px" y="0px" width="145.5px" height="145.5px" viewBox="0 0 145.5 145.5" style="enable-background:new 0 0 145.5 145.5;"
	 xml:space="preserve">
<style type="text/css">
	.st0{fill:#402F2E;}
	.st1{fill:#8F8256;}
</style>
<defs>
</defs>
<rect class="st0" width="145.5" height="145.5"/>
<path class="st1" d="M71.1,105.7l-0.9-0.3c-14.9-5.6-17.4-9.5-15.9-24.6l0.1-1.2l1,0.6c12,6.4,18.6,9.9,15.8,24.7L71.1,105.7z
	 M55.8,82c-1.2,13.1,1,16.4,14.1,21.5C71.9,91.1,66.5,87.8,55.8,82z M74.4,105.7l-0.2-0.9C71.5,90,78.1,86.5,90,80.1l1-0.6l0.1,1.2
	c1.5,15.1-1,19-15.9,24.6L74.4,105.7z M89.7,82c-10.7,5.7-16.1,9.1-14.1,21.5C88.7,98.5,90.9,95.2,89.7,82z M74.4,87.2l-0.2-0.9
	C71.5,71.5,78.1,68,90,61.6l1-0.6l0.1,1.2c1.5,15.1-1,19-15.9,24.6L74.4,87.2z M89.7,63.6C79,69.3,73.6,72.6,75.7,85
	C88.7,80,90.9,76.7,89.7,63.6z M71.1,87.2l-0.9-0.3c-14.9-5.6-17.4-9.5-15.9-24.6l0.1-1.2l1,0.6c12,6.4,18.6,9.9,15.8,24.7
	L71.1,87.2z M55.8,63.6C54.6,76.7,56.8,80,69.8,85C71.9,72.6,66.5,69.3,55.8,63.6z M72.7,72.7l-0.7-1c-8.8-12.9-8.8-14.2,0-27.6
	l0.7-1l0.7,1c8.6,13.4,8.6,15,0,27.6L72.7,72.7z M72.7,46.1c-7.7,11.8-7.5,12.9,0,23.8C80,59.1,80,57.6,72.7,46.1z"/>
</svg>
