
<svg xmlns="http://www.w3.org/2000/svg" xmlns:xlink="http://www.w3.org/1999/xlink">

<symbol id="gh" viewBox="0 0 14.4 14.4">
	<path fill="#fff" d="M7.2,14.4c-4,0-7.3-3.3-7.2-7.4C0.1,3.2,3.3,0,7.3,0c3.9,0,7.2,3.3,7.1,7.4C14.3,11.2,11.1,14.4,7.2,14.4z
		 M6.4,10.9c-0.4-0.1-0.7-0.2-1-0.3c-0.7-0.3-1.1-0.8-1.2-1.6C4,8.6,4,8.1,4.1,7.6c0.1-0.4,0.2-0.8,0.5-1.1c0,0,0-0.1,0-0.1
		C4.4,6,4.5,5.6,4.6,5.1C4.6,5,4.7,5,4.8,5c0.3,0.1,0.5,0.3,0.7,0.5c0.1,0.1,0.2,0.2,0.3,0.4c0.6-0.4,2.3-0.4,2.9,0
		C8.9,5.7,9,5.6,9.1,5.4C9.3,5.2,9.6,5.1,9.8,5C9.9,5,10,5,10,5.1c0.1,0.4,0.2,0.8,0,1.3c0,0.1,0,0.1,0,0.2c0.2,0.2,0.3,0.4,0.4,0.7
		c0.1,0.5,0.1,1,0.1,1.5c0,0.5-0.2,1-0.6,1.4c-0.3,0.3-0.7,0.5-1.2,0.6c-0.2,0-0.3,0.1-0.5,0.1c0.2,0.3,0.3,0.7,0.3,1.1
		c0,0.4,0,0.8,0,1.2c0,0,0,0.1,0,0.2c2.6-0.5,5.3-3.1,5-6.7c-0.3-3.5-3.3-6.1-6.9-5.8c-3.3,0.3-6,3.3-5.7,6.9c0.3,3.4,3,5.4,5.2,5.7
		c0-0.2,0-0.5,0-0.7c-0.1,0-0.2,0-0.3,0c-0.8,0.1-1.4-0.3-1.7-1c-0.2-0.4-0.4-0.8-0.8-1c0,0-0.1-0.1-0.1-0.1c0,0,0,0,0.1,0
		c0,0,0,0,0.1,0c0.3,0,0.5,0,0.7,0.2c0.1,0.1,0.2,0.3,0.3,0.4c0.4,0.6,1,0.8,1.6,0.6c0.1,0,0.1-0.1,0.1-0.2
		C6.1,11.4,6.2,11.2,6.4,10.9z"/>
</symbol>

<symbol id="arrow" viewBox="0 0 24 12.7">
<polygon fill="#ffffff" points="23.8,5.8 18.1,0 17.2,0.8 22.1,5.8 0,5.8 0,7 22.1,7 17.2,11.9 18.1,12.7 23.8,7 24,7 24,5.8 "/>
</symbol>

<symbol id="fb" viewBox="0 0 14.4 14.4">
	<path fill="#fff" d="M7.2,14.4c-4,0-7.3-3.3-7.2-7.4C0.1,3.2,3.3,0,7.3,0c3.9,0,7.2,3.3,7.1,7.4C14.3,11.3,11.1,14.4,7.2,14.4z
		 M0.9,7.2c0,3.6,3,6.4,6.4,6.3c3.4-0.1,6.2-2.8,6.2-6.4c0-3.6-3-6.4-6.4-6.4C3.7,0.9,0.9,3.7,0.9,7.2z"/>
	<path fill="#fff" d="M5.7,12.3c0-1.7,0-3.4,0-5.1c-0.4,0-0.7,0-1.1,0c0-0.6,0-1.1,0-1.7c0,0,0.1,0,0.2,0c0.3,0,0.5,0,0.8,0
		c0.1,0,0.2,0,0.2-0.2c0-0.4,0-0.9,0-1.3c0-0.5,0.1-0.9,0.5-1.3C6.5,2.3,7,2.2,7.4,2.1c0.8,0,1.5,0,2.3-0.1c0,0,0,0,0,0
		c0,0.6,0,1.2,0,1.8c-0.1,0-0.1,0-0.2,0c-0.3,0-0.7,0-1,0C8.2,3.9,8,4.1,8,4.4c0,0.3,0,0.7,0,1c0,0,0,0,0,0c0.6,0,1.1,0,1.8,0
		C9.7,6,9.6,6.6,9.6,7.2c-0.5,0-1,0-1.6,0c0,1.7,0,3.4,0,5.1C7.2,12.3,6.5,12.3,5.7,12.3z"/>
</symbol>

<symbol id="tw" viewBox="0 0 14.4 14.4">
	<path fill="#fff" d="M7.2,14.4c-4,0-7.3-3.3-7.2-7.4C0.1,3.2,3.3,0,7.3,0c4,0,7.2,3.3,7.1,7.4C14.3,11.2,11.1,14.4,7.2,14.4z
		 M13.5,7.2c0-3.6-3-6.4-6.4-6.3C3.7,0.9,0.9,3.7,0.9,7.2c0,3.6,3,6.4,6.4,6.3C10.7,13.5,13.5,10.7,13.5,7.2z"/>
	<path fill="#fff" d="M2.6,6.4c0.3,0.1,0.6,0.2,0.9,0.2c0,0,0,0,0,0c-0.6-0.4-0.9-1-0.9-1.8c0-0.4,0.1-0.8,0.3-1
		C4,5.2,5.4,5.9,7.1,6c0-0.3,0-0.6,0-0.9c0.2-1.2,1.6-2,2.8-1.5c0.3,0.1,0.5,0.3,0.7,0.5c0,0,0.1,0.1,0.2,0.1c0.3-0.1,0.7-0.2,1-0.4
		c0,0,0.1,0,0.2-0.1c-0.2,0.5-0.5,0.8-0.8,1.1c0.1,0,0.2,0,0.4-0.1c0.1,0,0.3-0.1,0.4-0.1c0.1,0,0.2-0.1,0.4-0.1
		c-0.3,0.4-0.6,0.7-0.9,1c-0.1,0.1-0.1,0.1-0.1,0.3c0,1.6-0.5,3-1.6,4.2c-0.8,0.9-1.9,1.5-3.1,1.7c-0.9,0.2-1.8,0.2-2.8-0.1
		c-0.6-0.1-1.1-0.4-1.6-0.7c0,0,0,0-0.1,0c1.1,0.1,2.1-0.2,3-0.9c-1-0.1-1.6-0.6-1.9-1.5c0.3,0,0.6,0,0.9,0c0,0,0,0,0,0
		c-0.6-0.2-1.1-0.5-1.4-1C2.7,7.1,2.6,6.7,2.6,6.4z"/>
</symbol>


<symbol id="search" viewBox="0 0 15 14.3">
<path fill="#fff" d="M15,13.5L10.5,9c0.6-0.9,1-2,1-3.3C11.5,2.6,8.9,0,5.8,0S0,2.6,0,5.8s2.6,5.8,5.8,5.8c1.5,0,2.9-0.6,4-1.6
	l4.4,4.4L15,13.5z M5.8,10.3c-2.5,0-4.6-2-4.6-4.6s2-4.6,4.6-4.6c2.5,0,4.6,2,4.6,4.6S8.3,10.3,5.8,10.3z"/>
</symbol>

<symbol id="categories" viewBox="0 0 22.6 15.1">
<path fill="#fff" d="M6,6.7H0V0h6V6.7z M1.2,5.5h3.5V1.2H1.2V5.5z"/>
	<path fill="#fff" d="M14.4,6.7h-6V0h6V6.7z M9.6,5.5h3.5V1.2H9.6V5.5z"/>
	<path fill="#fff" d="M22.6,6.7h-6V0h6V6.7z M17.9,5.5h3.5V1.2h-3.5V5.5z"/>
	<path fill="#fff" d="M6,15.1H0V8.4h6V15.1z M1.2,13.9h3.5V9.6H1.2V13.9z"/>
	<path fill="#fff" d="M14.4,15.1h-6V8.4h6V15.1z M9.6,13.9h3.5V9.6H9.6V13.9z"/>
	<path fill="#fff" d="M22.6,15.1h-6V8.4h6V15.1z M17.9,13.9h3.5V9.6h-3.5V13.9z"/>
</symbol>

<symbol id="bookmarks" viewBox="0 0 10.7 13.8">
<path fill="#fff" d="M10.7,13.8l-5.4-3l-5.4,3V0h10.7V13.8z M5.4,9.4l4.1,2.3V1.2H1.2v10.5L5.4,9.4z"/>
</symbol>

<symbol id="logo" viewBox="0 0 75.3 24.4">
	<path fill="#fff" d="M16.7,23.7c-0.1-0.1-0.2-0.2-0.2-0.2c0,0-0.1-0.1-0.1-0.2c0-0.1-0.1-0.1-0.2-0.3c-0.1-0.1-0.2-0.3-0.4-0.5
		c-0.2-0.3-0.4-0.5-0.5-0.8s-0.3-0.4-0.4-0.7c-0.1-0.2-0.3-0.4-0.5-0.7c-0.2-0.2-0.4-0.5-0.6-0.8c-0.2-0.2-0.4-0.4-0.7-0.6
		c-0.2-0.2-0.5-0.3-0.7-0.4c-0.2,0-0.3-0.1-0.4-0.1c-0.1,0-0.2,0-0.3,0c0,0.6,0,1.2,0,1.7s0,0.9,0,1.2c0,0.3,0,0.6,0,0.8
		c0,0.2,0.1,0.4,0.2,0.6c0.1,0.1,0.2,0.3,0.5,0.4c0.2,0.1,0.5,0.2,1,0.2v0.1H8.4v-0.1c0.2,0,0.5-0.1,0.7-0.2s0.4-0.2,0.5-0.4
		c0-0.1,0.1-0.1,0.1-0.3c0-0.1,0.1-0.3,0.1-0.4c0-0.1,0-0.3,0-0.5c0-0.2,0-0.3,0-0.5c0-0.1,0-0.3,0-0.6c0-0.2,0-0.5,0-0.8
		c0-0.3,0-0.6,0-0.9c0-0.3,0-0.6,0-0.9v-2.9c0-0.2,0-0.4,0-0.5c0-0.2,0-0.4,0-0.5s0-0.3-0.1-0.5c0-0.1-0.1-0.2-0.1-0.3
		c-0.1-0.2-0.3-0.3-0.5-0.3C9,13.1,8.8,13,8.5,13v-0.1c0.1,0,0.3,0,0.6,0c0.3,0,0.7,0,1.2,0c0.4,0,0.9,0,1.3,0c0.4,0,0.8,0,1,0
		c0.7,0,1.3,0,1.8,0.1c0.5,0,1,0.2,1.4,0.4c0.4,0.2,0.8,0.5,1.1,0.9s0.4,0.9,0.4,1.5c0,0.4-0.1,0.7-0.2,1c-0.1,0.3-0.3,0.6-0.5,0.8
		s-0.5,0.4-0.8,0.6c-0.3,0.2-0.6,0.3-0.9,0.4v0c0.2,0.1,0.3,0.2,0.5,0.4c0.2,0.2,0.3,0.4,0.5,0.6c0.3,0.4,0.5,0.8,0.8,1.2
		c0.3,0.4,0.6,0.8,0.8,1.2c0.4,0.5,0.7,0.9,1.1,1.1c0.3,0.2,0.8,0.4,1.2,0.5v0.1H16.7z M15.2,14.3c-0.2-0.4-0.6-0.7-1.1-0.9
		c-0.2-0.1-0.5-0.2-0.8-0.2c-0.3,0-0.5-0.1-0.8-0.1c-0.2,0-0.4,0-0.5,0c-0.1,0-0.2,0-0.3,0c0,0.1,0,0.1,0,0.2c0,0,0,0.1,0,0.2
		c0,0.1,0,0.2,0,0.3c0,0.1,0,0.3,0,0.5c0,0.4,0,0.7,0,1.2c0,0.4,0,0.9,0,1.3c0,0.4,0,0.8,0,1.1c0,0.3,0,0.5,0,0.6
		c0.4,0,0.8,0,1.1-0.1c0.4,0,0.7-0.1,1-0.2c0.3-0.1,0.6-0.2,0.8-0.4c0.2-0.2,0.4-0.4,0.6-0.6c0.1-0.2,0.3-0.4,0.3-0.7
		c0.1-0.2,0.1-0.5,0.1-0.8C15.6,15.1,15.5,14.7,15.2,14.3z"/>
	<path fill="#fff" d="M29.4,23.7h-9.2v-0.1c0.2,0,0.5-0.1,0.7-0.2c0.2-0.1,0.4-0.2,0.5-0.4c0-0.1,0.1-0.1,0.1-0.3
		c0-0.1,0.1-0.2,0.1-0.4s0-0.3,0.1-0.5c0-0.2,0-0.3,0-0.5c0-0.1,0-0.3,0-0.6c0-0.2,0-0.5,0-0.8c0-0.3,0-0.6,0-0.9c0-0.3,0-0.6,0-0.9
		v-2.9c0-0.2,0-0.4,0-0.6c0-0.2,0-0.4,0-0.5s0-0.3-0.1-0.5c0-0.1-0.1-0.2-0.1-0.3c-0.1-0.2-0.3-0.3-0.5-0.3c-0.2,0-0.4-0.1-0.7-0.1
		v-0.1h8.3l1,2.5l-0.1,0.1c-0.8-1-1.6-1.7-2.3-2c-0.2-0.1-0.5-0.1-0.9-0.2s-1-0.1-1.7-0.1c-0.2,0-0.4,0-0.7,0c-0.2,0-0.4,0-0.5,0.1
		c0,0.2,0,0.5-0.1,1c0,0.5,0,1.1,0,1.7c0,0.4,0,0.7,0,1c0,0.3,0,0.5,0,0.6c0,0.2,0,0.3,0,0.4c0,0.1,0,0.1,0,0.2c0,0,0.1,0,0.3,0
		c0.1,0,0.3,0,0.5,0c0.2,0,0.4,0,0.6,0c0.2,0,0.4,0,0.5-0.1c0.3-0.1,0.5-0.2,0.8-0.3c0.2-0.1,0.4-0.3,0.5-0.4s0.2-0.4,0.3-0.6
		c0.1-0.2,0.1-0.5,0.2-0.8h0.2v4.7h-0.2c-0.1-0.3-0.2-0.6-0.4-1c-0.2-0.3-0.3-0.6-0.5-0.8c-0.2-0.1-0.4-0.3-0.6-0.3
		s-0.5-0.1-0.8-0.2c-0.1,0-0.3,0-0.4,0c-0.1,0-0.2,0-0.3,0c-0.1,0-0.2,0-0.3,0c-0.1,0-0.2,0-0.4,0c0,0.1,0,0.3,0,0.6s0,0.6,0,0.8
		c0,0.1,0,0.3,0,0.4c0,0.2,0,0.3,0,0.5c0,0.2,0,0.3,0,0.5c0,0.1,0,0.3,0,0.4c0,0.3,0,0.6,0.1,0.9c0,0.3,0.1,0.5,0.2,0.6
		c0.1,0.1,0.3,0.2,0.6,0.3c0.3,0.1,0.7,0.1,1.1,0.1c0.2,0,0.4,0,0.7,0c0.3,0,0.5,0,0.8-0.1c0.3,0,0.6-0.1,0.9-0.2s0.5-0.3,0.8-0.5
		s0.5-0.5,0.7-0.8c0.2-0.3,0.5-0.7,0.7-1.1l0.2,0L29.4,23.7z"/>
	<path fill="#fff" d="M41,16.3c-0.1-0.5-0.3-0.9-0.6-1.4c-0.3-0.4-0.6-0.8-0.9-1.1c-0.4-0.3-0.8-0.6-1.2-0.7
		c-0.4-0.2-0.9-0.3-1.4-0.3c-0.7,0-1.3,0.2-1.8,0.5c-0.5,0.3-1,0.7-1.4,1.2c-0.4,0.5-0.6,1.1-0.8,1.7c-0.2,0.6-0.3,1.3-0.3,2
		c0,0.7,0.1,1.4,0.3,2s0.5,1.2,0.9,1.6c0.4,0.5,0.8,0.8,1.4,1.1s1.1,0.4,1.8,0.4c0.5,0,1-0.1,1.5-0.3s0.9-0.4,1.2-0.8
		c0.4-0.3,0.7-0.7,0.9-1.1c0.2-0.4,0.4-0.8,0.5-1.3h0.2l0,3.3h-0.2c-0.1-0.2-0.2-0.3-0.4-0.5c-0.1-0.1-0.2-0.2-0.3-0.2
		c0,0-0.1,0.1-0.3,0.2c-0.2,0.1-0.4,0.2-0.7,0.3c-0.3,0.1-0.7,0.2-1.1,0.3c-0.4,0.1-0.9,0.1-1.5,0.1c-0.9,0-1.8-0.1-2.5-0.4
		s-1.4-0.6-1.9-1.1c-0.5-0.5-0.9-1.1-1.2-1.7c-0.3-0.7-0.4-1.4-0.4-2.2c0-0.2,0-0.4,0-0.6s0.1-0.5,0.1-0.7c0.1-0.3,0.2-0.5,0.3-0.8
		c0.1-0.3,0.3-0.6,0.4-0.9c0.2-0.3,0.5-0.7,0.8-1c0.3-0.3,0.7-0.6,1.1-0.8c0.4-0.2,0.9-0.4,1.4-0.6c0.5-0.1,1.1-0.2,1.8-0.2
		c0.6,0,1.1,0.1,1.6,0.2c0.5,0.1,0.8,0.2,1.1,0.4c0.3,0.1,0.5,0.2,0.7,0.4c0.2,0.1,0.2,0.2,0.3,0.2s0.1,0,0.1-0.1
		c0.1,0,0.1-0.1,0.2-0.2s0.1-0.1,0.2-0.2S40.9,13,41,13h0.2v3.4L41,16.3z"/>
	<path fill="#fff" d="M42.2,23.7v-0.1c0.2,0,0.5-0.1,0.7-0.2c0.2-0.1,0.4-0.2,0.5-0.4c0-0.1,0.1-0.1,0.1-0.3c0-0.1,0-0.2,0.1-0.4
		s0-0.3,0-0.5c0-0.2,0-0.3,0-0.5c0-0.1,0-0.3,0-0.6c0-0.2,0-0.5,0-0.8c0-0.3,0-0.6,0-0.9c0-0.3,0-0.6,0-0.9v-2.9c0-0.2,0-0.4,0-0.5
		c0-0.2,0-0.3,0-0.5c0-0.2,0-0.3-0.1-0.4c0-0.1-0.1-0.2-0.1-0.3c-0.1-0.2-0.3-0.3-0.5-0.4c-0.2-0.1-0.4-0.1-0.7-0.2v-0.1h4.5V13
		c-0.2,0-0.4,0.1-0.7,0.2c-0.2,0.1-0.4,0.2-0.6,0.5c-0.1,0.2-0.1,0.4-0.1,0.6c0,0.3,0,0.5,0,0.7c0,0.2,0,0.5,0,0.7s0,0.5,0,0.7
		c0,0.2,0,0.5,0,0.8c0,0.3,0,0.5,0,0.9v3.4c0,0.3,0,0.6,0,0.8c0,0.3,0.1,0.5,0.1,0.6c0.1,0.2,0.3,0.3,0.6,0.4
		c0.3,0.1,0.5,0.1,0.7,0.2v0.1H42.2z"/>
	<path fill="#fff" d="M56.7,17c-0.1,0.3-0.3,0.6-0.5,0.8c-0.2,0.2-0.4,0.4-0.7,0.6c-0.3,0.2-0.5,0.3-0.8,0.4
		c-0.3,0.1-0.6,0.2-0.9,0.2c-0.3,0.1-0.6,0.1-1,0.1c-0.3,0-0.6,0-1,0c-0.3,0-0.6,0-0.8,0c0,0.3,0,0.6,0,0.8c0,0.2,0,0.4,0,0.6
		s0,0.3,0,0.5c0,0.1,0,0.3,0,0.5c0,0.3,0,0.6,0,0.8c0,0.2,0.1,0.4,0.2,0.6c0.1,0.1,0.2,0.3,0.5,0.4c0.2,0.1,0.5,0.2,1,0.2v0.1h-4.8
		v-0.1c0.2,0,0.5-0.1,0.7-0.2s0.4-0.2,0.5-0.4c0-0.1,0.1-0.1,0.1-0.3c0-0.1,0.1-0.3,0.1-0.4c0-0.1,0-0.3,0-0.5c0-0.2,0-0.3,0-0.5
		c0-0.1,0-0.3,0-0.6c0-0.2,0-0.5,0-0.8c0-0.3,0-0.6,0-0.9c0-0.3,0-0.6,0-0.9v-2.9c0-0.2,0-0.4,0-0.5c0-0.2,0-0.4,0-0.5
		s0-0.3-0.1-0.5c0-0.1-0.1-0.2-0.1-0.3c-0.1-0.2-0.3-0.3-0.6-0.3c-0.2-0.1-0.5-0.1-0.8-0.1v-0.1c0.1,0,0.2,0,0.4,0
		c0.2,0,0.4,0,0.7,0c0.3,0,0.5,0,0.8,0s0.6,0,0.9,0c0.3,0,0.6,0,0.8,0c0.3,0,0.5,0,0.7,0c0.7,0,1.2,0,1.8,0.1c0.5,0.1,1,0.2,1.4,0.5
		c0.4,0.2,0.8,0.6,1.1,1c0.3,0.4,0.4,1,0.4,1.6C56.8,16.3,56.8,16.7,56.7,17z M54.8,14.4c-0.3-0.5-0.7-0.8-1.2-1
		c-0.2-0.1-0.5-0.2-0.8-0.2S52.3,13,52,13c-0.2,0-0.4,0-0.5,0c-0.1,0-0.2,0-0.3,0c0,0.1,0,0.1,0,0.2c0,0,0,0.1,0,0.2
		c0,0.1,0,0.2,0,0.3s0,0.3,0,0.5c0,0.4,0,0.8,0,1.3c0,0.5,0,1,0,1.5s0,0.9,0,1.3c0,0.4,0,0.6,0,0.7c0.4,0,0.8,0,1.2,0
		c0.4,0,0.7-0.1,1-0.2c0.6-0.2,1.1-0.6,1.5-1.1c0.3-0.5,0.5-1.1,0.5-1.7C55.2,15.3,55.1,14.8,54.8,14.4z"/>
	<path fill="#fff" d="M66.1,23.7h-9.2v-0.1c0.2,0,0.5-0.1,0.7-0.2c0.2-0.1,0.4-0.2,0.5-0.4c0-0.1,0.1-0.1,0.1-0.3
		c0-0.1,0.1-0.2,0.1-0.4s0-0.3,0.1-0.5c0-0.2,0-0.3,0-0.5c0-0.1,0-0.3,0-0.6c0-0.2,0-0.5,0-0.8c0-0.3,0-0.6,0-0.9c0-0.3,0-0.6,0-0.9
		v-2.9c0-0.2,0-0.4,0-0.6c0-0.2,0-0.4,0-0.5s0-0.3-0.1-0.5c0-0.1-0.1-0.2-0.1-0.3c-0.1-0.2-0.3-0.3-0.5-0.3c-0.2,0-0.4-0.1-0.7-0.1
		v-0.1h8.3l1,2.5l-0.1,0.1c-0.8-1-1.6-1.7-2.3-2c-0.2-0.1-0.5-0.1-0.9-0.2s-1-0.1-1.7-0.1c-0.2,0-0.4,0-0.7,0c-0.2,0-0.4,0-0.5,0.1
		c0,0.2,0,0.5-0.1,1c0,0.5,0,1.1,0,1.7c0,0.4,0,0.7,0,1c0,0.3,0,0.5,0,0.6c0,0.2,0,0.3,0,0.4c0,0.1,0,0.1,0,0.2c0,0,0.1,0,0.3,0
		c0.1,0,0.3,0,0.5,0c0.2,0,0.4,0,0.6,0c0.2,0,0.4,0,0.5-0.1c0.3-0.1,0.5-0.2,0.8-0.3c0.2-0.1,0.4-0.3,0.5-0.4s0.2-0.4,0.3-0.6
		c0.1-0.2,0.1-0.5,0.2-0.8h0.2v4.7h-0.2c-0.1-0.3-0.2-0.6-0.4-1c-0.2-0.3-0.3-0.6-0.5-0.8c-0.2-0.1-0.4-0.3-0.6-0.3
		s-0.5-0.1-0.8-0.2c-0.1,0-0.3,0-0.4,0c-0.1,0-0.2,0-0.3,0c-0.1,0-0.2,0-0.3,0c-0.1,0-0.2,0-0.4,0c0,0.1,0,0.3,0,0.6s0,0.6,0,0.8
		c0,0.1,0,0.3,0,0.4c0,0.2,0,0.3,0,0.5c0,0.2,0,0.3,0,0.5c0,0.1,0,0.3,0,0.4c0,0.3,0,0.6,0.1,0.9c0,0.3,0.1,0.5,0.2,0.6
		c0.1,0.1,0.3,0.2,0.6,0.3c0.3,0.1,0.7,0.1,1.1,0.1c0.2,0,0.4,0,0.7,0c0.3,0,0.5,0,0.8-0.1c0.3,0,0.6-0.1,0.9-0.2s0.5-0.3,0.8-0.5
		s0.5-0.5,0.7-0.8c0.2-0.3,0.5-0.7,0.7-1.1l0.2,0L66.1,23.7z"/>
	<path fill="#fff" d="M75,22c-0.2,0.4-0.5,0.7-0.8,1c-0.3,0.3-0.8,0.5-1.2,0.6s-1,0.2-1.6,0.2c-0.5,0-0.9,0-1.3-0.1
		s-0.6-0.1-0.9-0.2c-0.2-0.1-0.4-0.2-0.5-0.2c-0.1-0.1-0.2-0.1-0.2-0.1c0,0-0.1,0.1-0.2,0.2c-0.1,0.1-0.2,0.2-0.3,0.3h-0.1l0-3H68
		c0.1,0.3,0.2,0.5,0.3,0.8s0.3,0.5,0.5,0.7c0.2,0.2,0.3,0.4,0.5,0.6s0.4,0.3,0.5,0.4c0.2,0.1,0.4,0.2,0.7,0.3
		c0.3,0.1,0.5,0.1,0.8,0.1c0.7,0,1.3-0.2,1.8-0.6c0.5-0.4,0.7-1,0.7-1.6c0-0.3,0-0.5-0.1-0.7s-0.2-0.4-0.4-0.5
		c-0.2-0.2-0.3-0.3-0.5-0.4c-0.2-0.1-0.4-0.2-0.7-0.3c-0.2-0.1-0.5-0.2-0.6-0.2C71.3,19,71.2,19,71,18.9c-0.2-0.1-0.3-0.1-0.5-0.2
		c-0.2-0.1-0.4-0.1-0.6-0.2c-0.3-0.1-0.5-0.2-0.8-0.4s-0.5-0.4-0.6-0.6c-0.2-0.2-0.3-0.5-0.4-0.8c-0.1-0.3-0.2-0.6-0.2-0.9
		c0-0.5,0.1-1,0.3-1.4c0.2-0.4,0.5-0.7,0.8-1c0.3-0.3,0.7-0.5,1.2-0.6c0.4-0.1,0.9-0.2,1.4-0.2c0.5,0,0.8,0,1.2,0.1
		c0.3,0.1,0.6,0.2,0.8,0.2c0.2,0.1,0.4,0.2,0.5,0.2c0.1,0.1,0.2,0.1,0.2,0.1c0,0,0.1-0.1,0.2-0.2c0.1-0.1,0.2-0.2,0.3-0.4h0.2v2.8
		h-0.2c-0.1-0.3-0.3-0.7-0.5-1c-0.2-0.3-0.4-0.6-0.7-0.9c-0.2-0.3-0.5-0.5-0.9-0.6c-0.3-0.2-0.7-0.2-1.1-0.2c-0.3,0-0.6,0-0.9,0.1
		c-0.3,0.1-0.5,0.2-0.7,0.4s-0.4,0.4-0.5,0.7c-0.1,0.3-0.2,0.6-0.2,0.9c0,0.5,0.2,1,0.5,1.3c0.3,0.3,0.7,0.6,1.2,0.8
		c0.2,0.1,0.4,0.1,0.6,0.2c0.2,0.1,0.3,0.1,0.5,0.2c0.2,0.1,0.3,0.1,0.5,0.2s0.4,0.1,0.5,0.2c0.7,0.2,1.2,0.6,1.6,1.1
		s0.6,1.1,0.6,1.8C75.3,21.2,75.2,21.6,75,22z"/>
<path fill="#fff" d="M6.7,24.4l-0.3-0.1c-5.8-2.2-6.8-3.7-6.2-9.6l0-0.5l0.4,0.2c4.7,2.5,7.2,3.9,6.2,9.6L6.7,24.4z M0.7,15.2
	c-0.5,5.1,0.4,6.4,5.5,8.4C7,18.7,4.9,17.4,0.7,15.2z M6.7,17.2L6.3,17c-5.8-2.2-6.8-3.7-6.2-9.6l0-0.5l0.4,0.2
	c4.7,2.5,7.2,3.9,6.2,9.6L6.7,17.2z M0.7,8c-0.5,5.1,0.4,6.4,5.5,8.4C7,11.5,4.9,10.2,0.7,8z M7.3,11.5l-0.3-0.4
	c-3.4-5-3.4-5.5,0-10.8L7.3,0l0.3,0.4c3.4,5.2,3.4,5.8,0,10.8L7.3,11.5z M7.3,1.1c-3,4.6-2.9,5,0,9.3C10.2,6.2,10.2,5.6,7.3,1.1z"/>
</symbol>
</svg>
