<!-- Generator: Adobe Illustrator 21.1.0, SVG Export Plug-In  -->
<svg version="1.1"
	 xmlns="http://www.w3.org/2000/svg" xmlns:xlink="http://www.w3.org/1999/xlink" xmlns:a="http://ns.adobe.com/AdobeSVGViewerExtensions/3.0/"
	 x="0px" y="0px" width="54.4px" height="8.9px" viewBox="0 0 54.4 8.9" style="enable-background:new 0 0 54.4 8.9;"
	 xml:space="preserve">
<style type="text/css">
	.logo__path{fill:#FFFFFF;}
</style>
<defs>
</defs>
<g>
	<path class="logo__path" d="M6.6,8.8C6.5,8.7,6.5,8.7,6.5,8.7c0,0-0.1-0.1-0.1-0.1S6.3,8.4,6.2,8.3C6.1,8.2,6,8.1,5.9,7.9
		C5.8,7.7,5.6,7.5,5.5,7.3C5.4,7.1,5.3,6.9,5.2,6.8C5,6.6,4.9,6.4,4.8,6.2C4.6,6.1,4.5,5.9,4.3,5.6C4.1,5.4,3.9,5.3,3.8,5.1
		C3.6,5,3.4,4.9,3.2,4.8c-0.2,0-0.3,0-0.3,0c-0.1,0-0.2,0-0.3,0c0,0.5,0,1,0,1.4c0,0.4,0,0.7,0,1c0,0.3,0,0.5,0,0.7
		c0,0.2,0.1,0.3,0.1,0.5c0.1,0.1,0.2,0.2,0.4,0.3s0.4,0.2,0.8,0.2v0.1H0V8.7c0.2,0,0.4-0.1,0.6-0.1C0.8,8.5,0.9,8.4,1,8.3
		c0,0,0.1-0.1,0.1-0.2c0-0.1,0-0.2,0.1-0.3c0-0.1,0-0.2,0-0.4c0-0.1,0-0.3,0-0.4c0-0.1,0-0.3,0-0.5c0-0.2,0-0.4,0-0.6s0-0.5,0-0.7
		c0-0.2,0-0.5,0-0.7V2.1c0-0.1,0-0.3,0-0.4s0-0.3,0-0.4c0-0.1,0-0.3-0.1-0.4c0-0.1-0.1-0.2-0.1-0.2C0.9,0.5,0.8,0.5,0.6,0.4
		S0.3,0.3,0.1,0.3V0.2c0.1,0,0.2,0,0.5,0c0.3,0,0.6,0,0.9,0c0.3,0,0.7,0,1,0c0.3,0,0.6,0,0.8,0c0.5,0,1,0,1.4,0
		c0.4,0,0.8,0.1,1.1,0.3C6.3,0.7,6.6,1,6.8,1.3S7.1,2,7.1,2.5C7.1,2.8,7,3,6.9,3.3C6.8,3.5,6.7,3.7,6.5,3.9S6.1,4.2,5.9,4.4
		C5.6,4.5,5.4,4.6,5.1,4.7v0C5.3,4.8,5.4,4.9,5.5,5c0.1,0.1,0.3,0.3,0.4,0.5c0.2,0.3,0.4,0.6,0.7,1S7,7.1,7.2,7.4
		c0.3,0.4,0.6,0.7,0.9,0.9c0.3,0.2,0.6,0.3,1,0.4v0.1H6.6z M5.4,1.3C5.2,1,4.9,0.8,4.5,0.6C4.4,0.5,4.2,0.4,3.9,0.4S3.5,0.3,3.3,0.3
		c-0.2,0-0.3,0-0.4,0s-0.2,0-0.2,0c0,0,0,0.1,0,0.1c0,0,0,0.1,0,0.1c0,0.1,0,0.1,0,0.2s0,0.2,0,0.4c0,0.3,0,0.6,0,0.9
		c0,0.4,0,0.7,0,1s0,0.6,0,0.9c0,0.2,0,0.4,0,0.5c0.3,0,0.6,0,0.9,0c0.3,0,0.6-0.1,0.8-0.2c0.3-0.1,0.5-0.2,0.7-0.3
		c0.2-0.1,0.3-0.3,0.5-0.5C5.5,3.4,5.6,3.2,5.6,3c0.1-0.2,0.1-0.4,0.1-0.6C5.7,2,5.6,1.7,5.4,1.3z"/>
	<path class="logo__path" d="M16.5,8.8H9.1V8.7c0.2,0,0.4-0.1,0.6-0.2c0.2-0.1,0.3-0.2,0.4-0.3c0,0,0.1-0.1,0.1-0.2c0-0.1,0-0.2,0.1-0.3
		c0-0.1,0-0.2,0-0.4c0-0.1,0-0.3,0-0.4c0-0.1,0-0.3,0-0.5c0-0.2,0-0.4,0-0.6s0-0.5,0-0.7c0-0.2,0-0.5,0-0.7V2.1c0-0.1,0-0.3,0-0.4
		c0-0.2,0-0.3,0-0.4c0-0.1,0-0.3-0.1-0.4c0-0.1-0.1-0.2-0.1-0.2C10,0.5,9.9,0.4,9.8,0.4S9.5,0.3,9.3,0.3V0.2h6.6l0.8,2l-0.1,0.1
		c-0.6-0.8-1.3-1.4-1.8-1.6c-0.1-0.1-0.4-0.1-0.8-0.2c-0.4,0-0.8-0.1-1.3-0.1c-0.2,0-0.3,0-0.5,0c-0.2,0-0.3,0-0.4,0
		c0,0.1,0,0.4,0,0.8c0,0.4,0,0.9,0,1.4c0,0.3,0,0.6,0,0.8s0,0.4,0,0.5c0,0.1,0,0.2,0,0.3c0,0.1,0,0.1,0,0.1c0,0,0.1,0,0.2,0
		s0.3,0,0.4,0c0.2,0,0.3,0,0.5,0c0.2,0,0.3,0,0.4-0.1c0.2-0.1,0.4-0.1,0.6-0.2c0.2-0.1,0.3-0.2,0.4-0.3c0.1-0.1,0.2-0.3,0.2-0.5
		c0.1-0.2,0.1-0.4,0.2-0.6h0.1v3.8h-0.1c-0.1-0.3-0.2-0.5-0.3-0.8S14,5.1,13.9,4.9c-0.1-0.1-0.3-0.2-0.5-0.3
		c-0.2-0.1-0.4-0.1-0.6-0.1c-0.1,0-0.2,0-0.3,0s-0.2,0-0.2,0c-0.1,0-0.2,0-0.2,0c-0.1,0-0.2,0-0.3,0c0,0.1,0,0.3,0,0.5
		c0,0.2,0,0.4,0,0.7c0,0.1,0,0.2,0,0.4s0,0.3,0,0.4c0,0.1,0,0.3,0,0.4c0,0.1,0,0.2,0,0.3c0,0.3,0,0.5,0,0.7c0,0.2,0.1,0.4,0.1,0.5
		c0.1,0.1,0.2,0.2,0.5,0.2s0.6,0.1,0.9,0.1c0.1,0,0.3,0,0.5,0s0.4,0,0.7-0.1c0.3,0,0.5-0.1,0.7-0.2c0.2-0.1,0.4-0.2,0.6-0.4
		c0.2-0.2,0.4-0.4,0.6-0.6c0.2-0.2,0.4-0.5,0.6-0.9l0.1,0L16.5,8.8z"/>
	<path class="logo__path" d="M25.8,3c-0.1-0.4-0.3-0.7-0.5-1.1S24.8,1.3,24.6,1c-0.3-0.2-0.6-0.4-1-0.6s-0.7-0.2-1.1-0.2
		c-0.6,0-1,0.1-1.5,0.4c-0.4,0.2-0.8,0.6-1.1,1c-0.3,0.4-0.5,0.9-0.7,1.4C19.1,3.5,19,4,19,4.5c0,0.6,0.1,1.1,0.2,1.6
		c0.2,0.5,0.4,0.9,0.7,1.3c0.3,0.4,0.7,0.7,1.1,0.9c0.4,0.2,0.9,0.3,1.4,0.3c0.4,0,0.8-0.1,1.2-0.2c0.4-0.2,0.7-0.4,1-0.6
		c0.3-0.2,0.5-0.5,0.7-0.9c0.2-0.3,0.3-0.7,0.4-1h0.1l0,2.6h-0.1c-0.1-0.1-0.2-0.3-0.3-0.4c-0.1-0.1-0.2-0.2-0.2-0.2
		c0,0-0.1,0-0.2,0.1s-0.3,0.2-0.6,0.3c-0.2,0.1-0.5,0.2-0.9,0.3c-0.3,0.1-0.7,0.1-1.2,0.1c-0.7,0-1.4-0.1-2-0.3S19.2,8,18.8,7.6
		c-0.4-0.4-0.7-0.9-1-1.4s-0.3-1.1-0.3-1.8c0-0.1,0-0.3,0-0.5c0-0.2,0.1-0.4,0.1-0.6c0.1-0.2,0.1-0.4,0.2-0.7s0.2-0.5,0.4-0.7
		c0.2-0.3,0.4-0.5,0.6-0.8s0.5-0.5,0.9-0.7c0.3-0.2,0.7-0.3,1.1-0.4C21.3,0.1,21.8,0,22.3,0c0.5,0,0.9,0,1.3,0.1s0.7,0.2,0.9,0.3
		c0.2,0.1,0.4,0.2,0.6,0.3c0.1,0.1,0.2,0.1,0.2,0.1s0,0,0.1-0.1c0,0,0.1-0.1,0.1-0.1c0.1-0.1,0.1-0.1,0.2-0.2
		c0.1-0.1,0.1-0.1,0.2-0.2h0.1V3L25.8,3z"/>
	<path class="logo__path" d="M27,8.8V8.7c0.2,0,0.4-0.1,0.6-0.2c0.2-0.1,0.3-0.2,0.4-0.3c0,0,0.1-0.1,0.1-0.2c0-0.1,0-0.2,0-0.3
		s0-0.2,0-0.4s0-0.3,0-0.4c0-0.1,0-0.3,0-0.5c0-0.2,0-0.4,0-0.6s0-0.5,0-0.7c0-0.2,0-0.5,0-0.7V2.1c0-0.1,0-0.3,0-0.4s0-0.3,0-0.4
		c0-0.1,0-0.2-0.1-0.3c0-0.1-0.1-0.2-0.1-0.2c-0.1-0.1-0.2-0.2-0.4-0.3s-0.4-0.1-0.6-0.1V0.2h3.6v0.1c-0.2,0-0.3,0.1-0.5,0.1
		c-0.2,0.1-0.3,0.2-0.4,0.4c-0.1,0.1-0.1,0.3-0.1,0.5c0,0.2,0,0.4,0,0.6c0,0.2,0,0.4,0,0.6c0,0.2,0,0.4,0,0.6s0,0.4,0,0.6
		c0,0.2,0,0.4,0,0.7v2.7c0,0.2,0,0.5,0,0.7c0,0.2,0,0.4,0.1,0.5c0.1,0.1,0.2,0.2,0.5,0.3c0.2,0.1,0.4,0.1,0.6,0.1v0.1H27z"/>
	<path class="logo__path" d="M38.8,3.5c-0.1,0.2-0.2,0.5-0.4,0.6c-0.2,0.2-0.3,0.3-0.5,0.5s-0.4,0.2-0.6,0.3C37,5,36.7,5,36.5,5.1
		c-0.3,0-0.5,0.1-0.8,0.1c-0.3,0-0.5,0-0.8,0c-0.2,0-0.5,0-0.6,0c0,0.3,0,0.5,0,0.7c0,0.2,0,0.3,0,0.5s0,0.3,0,0.4
		c0,0.1,0,0.2,0,0.4c0,0.3,0,0.5,0,0.7c0,0.2,0.1,0.3,0.1,0.5c0.1,0.1,0.2,0.2,0.4,0.3s0.4,0.2,0.8,0.2v0.1h-3.8V8.7
		c0.2,0,0.4-0.1,0.6-0.1c0.2-0.1,0.3-0.2,0.4-0.3c0,0,0.1-0.1,0.1-0.2c0-0.1,0-0.2,0.1-0.3c0-0.1,0-0.2,0-0.4c0-0.1,0-0.3,0-0.4
		c0-0.1,0-0.3,0-0.5c0-0.2,0-0.4,0-0.6s0-0.5,0-0.7c0-0.2,0-0.5,0-0.7V2.1c0-0.1,0-0.3,0-0.4s0-0.3,0-0.4c0-0.1,0-0.3-0.1-0.4
		c0-0.1-0.1-0.2-0.1-0.2c-0.1-0.1-0.3-0.2-0.5-0.3s-0.4-0.1-0.6-0.1V0.2c0,0,0.1,0,0.3,0c0.2,0,0.3,0,0.5,0s0.4,0,0.7,0
		c0.2,0,0.5,0,0.7,0c0.2,0,0.5,0,0.7,0c0.2,0,0.4,0,0.5,0c0.5,0,1,0,1.4,0.1c0.4,0.1,0.8,0.2,1.2,0.4c0.4,0.2,0.6,0.5,0.9,0.8
		c0.2,0.4,0.3,0.8,0.3,1.2C38.9,3,38.9,3.2,38.8,3.5z M37.3,1.4C37,1,36.7,0.7,36.3,0.6c-0.2-0.1-0.4-0.1-0.6-0.2
		c-0.2,0-0.4,0-0.7,0c-0.2,0-0.3,0-0.4,0c-0.1,0-0.2,0-0.2,0c0,0,0,0.1,0,0.1s0,0.1,0,0.1c0,0.1,0,0.1,0,0.2c0,0.1,0,0.2,0,0.4
		c0,0.3,0,0.6,0,1c0,0.4,0,0.8,0,1.2c0,0.4,0,0.7,0,1s0,0.5,0,0.5c0.3,0,0.6,0,0.9,0c0.3,0,0.6-0.1,0.8-0.2c0.5-0.2,0.9-0.5,1.2-0.9
		c0.3-0.4,0.4-0.9,0.4-1.4C37.6,2.2,37.5,1.7,37.3,1.4z"/>
	<path class="logo__path" d="M47,8.8h-7.3V8.7c0.2,0,0.4-0.1,0.6-0.2c0.2-0.1,0.3-0.2,0.4-0.3c0,0,0.1-0.1,0.1-0.2c0-0.1,0-0.2,0.1-0.3
		c0-0.1,0-0.2,0-0.4c0-0.1,0-0.3,0-0.4c0-0.1,0-0.3,0-0.5c0-0.2,0-0.4,0-0.6s0-0.5,0-0.7c0-0.2,0-0.5,0-0.7V2.1c0-0.1,0-0.3,0-0.4
		c0-0.2,0-0.3,0-0.4c0-0.1,0-0.3-0.1-0.4c0-0.1-0.1-0.2-0.1-0.2c-0.1-0.1-0.2-0.2-0.4-0.2S40,0.3,39.8,0.3V0.2h6.6l0.8,2l-0.1,0.1
		c-0.6-0.8-1.3-1.4-1.8-1.6c-0.1-0.1-0.4-0.1-0.8-0.2c-0.4,0-0.8-0.1-1.3-0.1c-0.2,0-0.3,0-0.5,0c-0.2,0-0.3,0-0.4,0
		c0,0.1,0,0.4,0,0.8c0,0.4,0,0.9,0,1.4c0,0.3,0,0.6,0,0.8s0,0.4,0,0.5c0,0.1,0,0.2,0,0.3c0,0.1,0,0.1,0,0.1c0,0,0.1,0,0.2,0
		s0.3,0,0.4,0c0.2,0,0.3,0,0.5,0c0.2,0,0.3,0,0.4-0.1c0.2-0.1,0.4-0.1,0.6-0.2c0.2-0.1,0.3-0.2,0.4-0.3c0.1-0.1,0.2-0.3,0.2-0.5
		C45,3,45,2.8,45.1,2.6h0.1v3.8h-0.1c-0.1-0.3-0.2-0.5-0.3-0.8s-0.3-0.5-0.4-0.6c-0.1-0.1-0.3-0.2-0.5-0.3c-0.2-0.1-0.4-0.1-0.6-0.1
		c-0.1,0-0.2,0-0.3,0s-0.2,0-0.2,0c-0.1,0-0.2,0-0.2,0c-0.1,0-0.2,0-0.3,0c0,0.1,0,0.3,0,0.5c0,0.2,0,0.4,0,0.7c0,0.1,0,0.2,0,0.4
		s0,0.3,0,0.4c0,0.1,0,0.3,0,0.4c0,0.1,0,0.2,0,0.3c0,0.3,0,0.5,0,0.7c0,0.2,0.1,0.4,0.1,0.5c0.1,0.1,0.2,0.2,0.5,0.2
		s0.6,0.1,0.9,0.1c0.1,0,0.3,0,0.5,0s0.4,0,0.7-0.1c0.3,0,0.5-0.1,0.7-0.2c0.2-0.1,0.4-0.2,0.6-0.4c0.2-0.2,0.4-0.4,0.6-0.6
		c0.2-0.2,0.4-0.5,0.6-0.9l0.1,0L47,8.8z"/>
	<path class="logo__path" d="M54.1,7.5c-0.2,0.3-0.4,0.6-0.6,0.8c-0.3,0.2-0.6,0.4-1,0.5c-0.4,0.1-0.8,0.2-1.3,0.2c-0.4,0-0.7,0-1-0.1
		c-0.3,0-0.5-0.1-0.7-0.2c-0.2-0.1-0.3-0.1-0.4-0.2C49,8.4,49,8.4,49,8.4s-0.1,0-0.2,0.1c-0.1,0.1-0.2,0.2-0.2,0.3h-0.1l0-2.4h0.1
		c0.1,0.2,0.2,0.4,0.3,0.6c0.1,0.2,0.2,0.4,0.4,0.6c0.1,0.2,0.3,0.3,0.4,0.5c0.1,0.1,0.3,0.2,0.4,0.3c0.1,0.1,0.3,0.1,0.5,0.2
		c0.2,0.1,0.4,0.1,0.6,0.1c0.6,0,1.1-0.2,1.4-0.5c0.4-0.3,0.6-0.8,0.6-1.3c0-0.2,0-0.4-0.1-0.6C53.1,6.2,53,6,52.8,5.9
		c-0.1-0.1-0.3-0.2-0.4-0.3c-0.2-0.1-0.3-0.2-0.5-0.2c-0.2-0.1-0.4-0.1-0.5-0.2S51.1,5.1,50.9,5c-0.1,0-0.3-0.1-0.4-0.1
		s-0.3-0.1-0.5-0.2c-0.2-0.1-0.4-0.2-0.6-0.3c-0.2-0.1-0.4-0.3-0.5-0.5s-0.3-0.4-0.3-0.6c-0.1-0.2-0.1-0.5-0.1-0.7
		c0-0.4,0.1-0.8,0.2-1.1c0.2-0.3,0.4-0.6,0.6-0.8c0.3-0.2,0.6-0.4,0.9-0.5C50.6,0.1,51,0,51.4,0c0.4,0,0.7,0,0.9,0.1
		s0.5,0.1,0.6,0.2c0.2,0.1,0.3,0.1,0.4,0.2s0.1,0.1,0.1,0.1c0,0,0.1,0,0.1-0.1c0.1-0.1,0.1-0.2,0.2-0.3H54v2.2h-0.1
		c-0.1-0.3-0.2-0.5-0.4-0.8c-0.2-0.3-0.3-0.5-0.5-0.7c-0.2-0.2-0.4-0.4-0.7-0.5c-0.3-0.1-0.5-0.2-0.9-0.2c-0.2,0-0.5,0-0.7,0.1
		c-0.2,0.1-0.4,0.2-0.6,0.3S49.8,1,49.7,1.2c-0.1,0.2-0.1,0.5-0.1,0.7c0,0.4,0.1,0.8,0.4,1c0.3,0.3,0.6,0.5,1,0.6
		c0.2,0.1,0.3,0.1,0.4,0.2c0.1,0,0.3,0.1,0.4,0.1C52,3.9,52.1,4,52.2,4s0.3,0.1,0.4,0.2c0.5,0.2,1,0.5,1.3,0.9
		c0.3,0.4,0.4,0.9,0.4,1.4C54.4,6.8,54.3,7.2,54.1,7.5z"/>
</g>
</svg>